<svg width="250" height="138" viewBox="0 0 250 138" fill="none" xmlns="http://www.w3.org/2000/svg">
<g filter="url(#filter0_b_178_82)">
<path fill-rule="evenodd" clip-rule="evenodd" d="M63.0522 137.411C62.7448 137.416 62.437 137.418 62.1285 137.418C27.9473 137.418 0.238159 110.366 0.238159 76.9948C0.238159 43.6239 27.9473 16.5715 62.1285 16.5715C74.5507 16.5715 86.1181 20.1444 95.8113 26.2951C104.877 10.79 121.974 0.338379 141.57 0.338379C168.048 0.338379 189.961 19.4191 193.67 44.2649C196.253 43.8451 198.907 43.6267 201.613 43.6267C228.141 43.6267 249.647 64.6227 249.647 90.5224C249.647 116.422 228.141 137.418 201.613 137.418H63.0522V137.411Z" fill="url(#paint0_linear_178_82)" fill-opacity="0.4"/>
<path d="M63.5522 136.918V136.904L63.0451 136.911C62.7401 136.916 62.4346 136.918 62.1285 136.918C28.2121 136.918 0.738159 110.078 0.738159 76.9948C0.738159 43.9113 28.2121 17.0715 62.1285 17.0715C74.4537 17.0715 85.9285 20.6163 95.5434 26.7173L95.9812 26.9951L96.2429 26.5475C105.221 11.193 122.154 0.838379 141.57 0.838379C167.806 0.838379 189.504 19.7431 193.175 44.3387L193.25 44.8396L193.75 44.7584C196.307 44.3429 198.934 44.1267 201.613 44.1267C227.876 44.1267 249.147 64.91 249.147 90.5224C249.147 116.135 227.876 136.918 201.613 136.918H63.5522Z" stroke="url(#paint1_linear_178_82)" stroke-opacity="0.7"/>
</g>
<defs>
<filter id="filter0_b_178_82" x="-29.7618" y="-29.6616" width="309.409" height="197.08" filterUnits="userSpaceOnUse" color-interpolation-filters="sRGB">
<feFlood flood-opacity="0" result="BackgroundImageFix"/>
<feGaussianBlur in="BackgroundImageFix" stdDeviation="15"/>
<feComposite in2="SourceAlpha" operator="in" result="effect1_backgroundBlur_178_82"/>
<feBlend mode="normal" in="SourceGraphic" in2="effect1_backgroundBlur_178_82" result="shape"/>
</filter>
<linearGradient id="paint0_linear_178_82" x1="124.943" y1="0.338379" x2="124.943" y2="137.418" gradientUnits="userSpaceOnUse">
<stop stop-color="#E8F0F7"/>
<stop offset="0.267854" stop-color="white"/>
</linearGradient>
<linearGradient id="paint1_linear_178_82" x1="12.7086" y1="-24.5852" x2="249.562" y2="115.754" gradientUnits="userSpaceOnUse">
<stop stop-color="white"/>
<stop offset="1" stop-color="white" stop-opacity="0"/>
</linearGradient>
</defs>
</svg>
