<svg width="198" height="32" viewBox="0 0 198 32" fill="none" xmlns="http://www.w3.org/2000/svg">
<path d="M42.3003 24.1646C42.1182 24.1646 41.9543 24.1009 41.8086 23.9734C41.6812 23.8459 41.6174 23.682 41.6174 23.4817V10.643C41.6174 10.4426 41.6812 10.2787 41.8086 10.1513C41.9543 10.0238 42.1182 9.96005 42.3003 9.96005H44.8408C45.0411 9.96005 45.205 10.0238 45.3325 10.1513C45.4599 10.2787 45.5237 10.4426 45.5237 10.643V11.5717C45.9061 11.0618 46.416 10.6248 47.0534 10.2605C47.709 9.89632 48.483 9.7051 49.3753 9.68689C51.4696 9.65047 52.9173 10.4517 53.7186 12.0907C54.1375 11.3805 54.7384 10.8069 55.5215 10.3698C56.3046 9.91453 57.1696 9.68689 58.1165 9.68689C59.0635 9.68689 59.9194 9.90542 60.6843 10.3425C61.4492 10.7613 62.0592 11.4169 62.5145 12.3093C62.9698 13.1834 63.1974 14.3125 63.1974 15.6965V23.4817C63.1974 23.682 63.1246 23.8459 62.9789 23.9734C62.8514 24.1009 62.6966 24.1646 62.5145 24.1646H59.8102C59.6098 24.1646 59.4459 24.1009 59.3185 23.9734C59.191 23.8459 59.1273 23.682 59.1273 23.4817V15.915C59.1273 15.1684 59.018 14.5856 58.7995 14.1668C58.5991 13.7479 58.3169 13.4475 57.9527 13.2653C57.6066 13.065 57.2151 12.9649 56.778 12.9649C56.3956 12.9649 56.0223 13.065 55.6581 13.2653C55.3121 13.4475 55.0207 13.7479 54.7839 14.1668C54.5654 14.5856 54.4561 15.1684 54.4561 15.915V23.4817C54.4561 23.682 54.3924 23.8459 54.2649 23.9734C54.1375 24.1009 53.9827 24.1646 53.8006 24.1646H51.0962C50.8959 24.1646 50.732 24.1009 50.6045 23.9734C50.4771 23.8459 50.4133 23.682 50.4133 23.4817V15.915C50.4133 15.1684 50.3041 14.5856 50.0855 14.1668C49.867 13.7479 49.5756 13.4475 49.2114 13.2653C48.8654 13.065 48.483 12.9649 48.0641 12.9649C47.6817 12.9649 47.3084 13.065 46.9441 13.2653C46.5981 13.4475 46.3068 13.7479 46.07 14.1668C45.8515 14.5856 45.7422 15.1593 45.7422 15.8877V23.4817C45.7422 23.682 45.6785 23.8459 45.551 23.9734C45.4235 24.1009 45.2596 24.1646 45.0593 24.1646H42.3003Z" fill="#253D32"/>
<path d="M71.206 24.4378C70.2408 24.4378 69.3758 24.2556 68.611 23.8914C67.8461 23.509 67.236 22.9991 66.7808 22.3617C66.3255 21.7243 66.0979 21.0141 66.0979 20.231C66.0979 18.9381 66.6169 17.9182 67.6549 17.1716C68.7111 16.4249 70.0952 15.915 71.807 15.6419L75.3854 15.1229V14.6312C75.3854 13.9209 75.2215 13.3746 74.8937 12.9922C74.5659 12.6097 73.9923 12.4185 73.1728 12.4185C72.5718 12.4185 72.0893 12.5369 71.725 12.7736C71.379 13.0104 71.1059 13.32 70.9055 13.7024C70.7599 13.9391 70.5413 14.0575 70.2499 14.0575H67.6549C67.4546 14.0575 67.2998 14.0029 67.1905 13.8936C67.0812 13.7661 67.0357 13.6205 67.0539 13.4566C67.0539 13.147 67.1723 12.7828 67.409 12.3639C67.6458 11.945 68.01 11.5353 68.5017 11.1347C68.9934 10.7158 69.6217 10.3698 70.3865 10.0966C71.1696 9.82347 72.1075 9.68689 73.2001 9.68689C74.3474 9.68689 75.3308 9.82347 76.1503 10.0966C76.9698 10.3698 77.6254 10.7522 78.1171 11.2439C78.627 11.7356 78.9912 12.3093 79.2097 12.9649C79.4465 13.6022 79.5648 14.2943 79.5648 15.0409V23.4817C79.5648 23.682 79.5011 23.8459 79.3736 23.9734C79.2462 24.1009 79.0914 24.1646 78.9093 24.1646H76.2049C76.0228 24.1646 75.868 24.1009 75.7405 23.9734C75.6131 23.8459 75.5493 23.682 75.5493 23.4817V22.471C75.3126 22.817 74.9939 23.1448 74.5933 23.4544C74.1926 23.7457 73.71 23.9825 73.1455 24.1646C72.5992 24.3467 71.9527 24.4378 71.206 24.4378ZM72.2987 21.5969C72.8996 21.5969 73.4369 21.4694 73.9104 21.2144C74.3838 20.9595 74.7572 20.5679 75.0303 20.0398C75.3035 19.5117 75.4401 18.847 75.4401 18.0457V17.5813L72.8996 17.9911C71.9345 18.155 71.2242 18.4008 70.769 18.7286C70.3137 19.0564 70.0861 19.4571 70.0861 19.9305C70.0861 20.2766 70.1862 20.577 70.3865 20.832C70.6051 21.0687 70.8782 21.2599 71.206 21.4056C71.552 21.5331 71.9163 21.5969 72.2987 21.5969Z" fill="#253D32"/>
<path d="M84.0742 24.1646C83.8921 24.1646 83.7282 24.1009 83.5825 23.9734C83.455 23.8459 83.3913 23.682 83.3913 23.4817V10.643C83.3913 10.4609 83.455 10.3061 83.5825 10.1786C83.7282 10.0329 83.8921 9.96005 84.0742 9.96005H86.7512C86.9515 9.96005 87.1154 10.0329 87.2429 10.1786C87.3704 10.3061 87.4341 10.4609 87.4341 10.643V11.7356C87.8894 11.1711 88.4539 10.734 89.1277 10.4244C89.8015 10.1148 90.5664 9.96005 91.4223 9.96005H92.5969C92.7972 9.96005 92.9611 10.0238 93.0886 10.1513C93.2161 10.2787 93.2798 10.4426 93.2798 10.643V13.0195C93.2798 13.2016 93.2161 13.3564 93.0886 13.4839C92.9611 13.6114 92.7972 13.6751 92.5969 13.6751H90.2204C89.4009 13.6751 88.7635 13.9027 88.3082 14.358C87.8712 14.8133 87.6526 15.4415 87.6526 16.2428V23.4817C87.6526 23.682 87.5798 23.8459 87.4341 23.9734C87.3066 24.1009 87.1518 24.1646 86.9697 24.1646H84.0742Z" fill="#253D32"/>
<path d="M96.5454 24.1646C96.3451 24.1646 96.1812 24.1009 96.0537 23.9734C95.9262 23.8459 95.8625 23.682 95.8625 23.4817V5.45284C95.8625 5.25252 95.9262 5.08862 96.0537 4.96115C96.1812 4.83367 96.3451 4.76993 96.5454 4.76993H99.2224C99.4045 4.76993 99.5593 4.83367 99.6868 4.96115C99.8325 5.08862 99.9053 5.25252 99.9053 5.45284V14.6858L104.085 10.4244C104.23 10.297 104.358 10.1877 104.467 10.0966C104.595 10.0056 104.786 9.96005 105.041 9.96005H108.155C108.319 9.96005 108.455 10.0238 108.565 10.1513C108.692 10.2605 108.756 10.3971 108.756 10.561C108.756 10.6339 108.738 10.7158 108.701 10.8069C108.665 10.8979 108.601 10.9708 108.51 11.0254L103.238 16.3248L109.193 23.1266C109.339 23.2723 109.411 23.4179 109.411 23.5636C109.411 23.7275 109.357 23.8732 109.248 24.0007C109.138 24.11 108.993 24.1646 108.81 24.1646H105.642C105.369 24.1646 105.168 24.1191 105.041 24.028C104.932 23.937 104.804 23.8277 104.658 23.7002L99.9053 18.3462V23.4817C99.9053 23.682 99.8325 23.8459 99.6868 23.9734C99.5593 24.1009 99.4045 24.1646 99.2224 24.1646H96.5454Z" fill="#253D32"/>
<path d="M117.605 24.4378C115.511 24.4378 113.844 23.855 112.606 22.6895C111.386 21.524 110.739 19.8304 110.667 17.6087C110.667 17.463 110.667 17.2718 110.667 17.035C110.667 16.7801 110.667 16.5888 110.667 16.4614C110.739 15.0409 111.058 13.8299 111.623 12.8283C112.187 11.8085 112.979 11.0345 113.999 10.5064C115.019 9.96005 116.212 9.68689 117.578 9.68689C119.125 9.68689 120.409 10.0056 121.429 10.643C122.449 11.2621 123.214 12.1181 123.724 13.2107C124.252 14.2852 124.516 15.5235 124.516 16.9257V17.554C124.516 17.7361 124.452 17.9 124.325 18.0457C124.197 18.1732 124.033 18.2369 123.833 18.2369H114.928C114.928 18.2369 114.928 18.2642 114.928 18.3189C114.928 18.3553 114.928 18.3917 114.928 18.4281C114.946 19.0109 115.055 19.5481 115.256 20.0398C115.456 20.5133 115.747 20.8957 116.13 21.1871C116.53 21.4785 117.013 21.6242 117.578 21.6242C118.015 21.6242 118.379 21.5604 118.67 21.433C118.962 21.2873 119.198 21.1325 119.38 20.9686C119.581 20.7865 119.726 20.6317 119.818 20.5042C119.981 20.3039 120.109 20.1855 120.2 20.1491C120.309 20.0944 120.464 20.0671 120.664 20.0671H123.56C123.724 20.0671 123.86 20.1218 123.97 20.231C124.097 20.3403 124.152 20.4769 124.134 20.6408C124.115 20.9504 123.961 21.3237 123.669 21.7607C123.396 22.1796 122.986 22.5985 122.44 23.0173C121.894 23.4179 121.211 23.7548 120.391 24.028C119.59 24.3012 118.661 24.4378 117.605 24.4378ZM114.928 15.7238H120.255V15.6419C120.255 15.0045 120.145 14.4491 119.927 13.9756C119.726 13.4839 119.426 13.1014 119.025 12.8283C118.625 12.5551 118.142 12.4185 117.578 12.4185C117.013 12.4185 116.53 12.5551 116.13 12.8283C115.747 13.1014 115.447 13.4839 115.228 13.9756C115.028 14.4491 114.928 15.0045 114.928 15.6419V15.7238Z" fill="#253D32"/>
<path d="M134.595 24.1646C133.466 24.1646 132.501 23.9825 131.7 23.6183C130.917 23.2358 130.316 22.6531 129.897 21.87C129.478 21.0869 129.269 20.1036 129.269 18.9198V13.1834H127.138C126.938 13.1834 126.774 13.1197 126.646 12.9922C126.519 12.8647 126.455 12.7099 126.455 12.5278V10.643C126.455 10.4426 126.519 10.2787 126.646 10.1513C126.774 10.0238 126.938 9.96005 127.138 9.96005H129.269V5.45284C129.269 5.25252 129.332 5.08862 129.46 4.96115C129.605 4.83367 129.769 4.76993 129.951 4.76993H132.656C132.838 4.76993 132.993 4.83367 133.12 4.96115C133.248 5.08862 133.311 5.25252 133.311 5.45284V9.96005H136.726C136.926 9.96005 137.09 10.0238 137.218 10.1513C137.345 10.2787 137.409 10.4426 137.409 10.643V12.5278C137.409 12.7099 137.345 12.8647 137.218 12.9922C137.09 13.1197 136.926 13.1834 136.726 13.1834H133.311V18.592C133.311 19.2841 133.439 19.8304 133.694 20.231C133.949 20.6135 134.377 20.8047 134.978 20.8047H136.972C137.172 20.8047 137.336 20.8684 137.463 20.9959C137.591 21.1234 137.655 21.2782 137.655 21.4603V23.4817C137.655 23.682 137.591 23.8459 137.463 23.9734C137.336 24.1009 137.172 24.1646 136.972 24.1646H134.595Z" fill="#253D32"/>
<path d="M141.24 24.1646C141.039 24.1646 140.876 24.1009 140.748 23.9734C140.621 23.8459 140.557 23.682 140.557 23.4817V5.45284C140.557 5.25252 140.621 5.08862 140.748 4.96115C140.876 4.83367 141.039 4.76993 141.24 4.76993H144.19C144.39 4.76993 144.554 4.83367 144.682 4.96115C144.809 5.08862 144.873 5.25252 144.873 5.45284V11.599C145.346 11.0163 145.938 10.5519 146.648 10.2059C147.377 9.85989 148.242 9.68689 149.243 9.68689C150.318 9.68689 151.265 9.93274 152.084 10.4244C152.922 10.8979 153.569 11.599 154.024 12.5278C154.497 13.4383 154.734 14.5492 154.734 15.8604V23.4817C154.734 23.682 154.67 23.8459 154.543 23.9734C154.415 24.1009 154.252 24.1646 154.051 24.1646H151.074C150.892 24.1646 150.737 24.1009 150.609 23.9734C150.482 23.8459 150.418 23.682 150.418 23.4817V16.0243C150.418 15.0591 150.181 14.3125 149.708 13.7844C149.234 13.238 148.561 12.9649 147.686 12.9649C146.831 12.9649 146.148 13.238 145.638 13.7844C145.128 14.3125 144.873 15.0591 144.873 16.0243V23.4817C144.873 23.682 144.809 23.8459 144.682 23.9734C144.554 24.1009 144.39 24.1646 144.19 24.1646H141.24Z" fill="#253D32"/>
<path d="M159.205 24.1646C159.023 24.1646 158.859 24.1009 158.713 23.9734C158.586 23.8459 158.522 23.682 158.522 23.4817V10.643C158.522 10.4426 158.586 10.2787 158.713 10.1513C158.859 10.0238 159.023 9.96005 159.205 9.96005H161.964C162.146 9.96005 162.301 10.0238 162.428 10.1513C162.556 10.2787 162.62 10.4426 162.62 10.643V23.4817C162.62 23.682 162.556 23.8459 162.428 23.9734C162.301 24.1009 162.146 24.1646 161.964 24.1646H159.205ZM159.123 7.77474C158.941 7.77474 158.786 7.711 158.659 7.58352C158.531 7.45605 158.467 7.29215 158.467 7.09183V4.8792C158.467 4.69709 158.531 4.5423 158.659 4.41482C158.786 4.26913 158.941 4.19629 159.123 4.19629H162.019C162.201 4.19629 162.356 4.26913 162.483 4.41482C162.629 4.5423 162.702 4.69709 162.702 4.8792V7.09183C162.702 7.29215 162.629 7.45605 162.483 7.58352C162.356 7.711 162.201 7.77474 162.019 7.77474H159.123Z" fill="#253D32"/>
<path d="M167.274 24.1646C167.092 24.1646 166.928 24.1009 166.782 23.9734C166.655 23.8459 166.591 23.682 166.591 23.4817V10.643C166.591 10.4426 166.655 10.2787 166.782 10.1513C166.928 10.0238 167.092 9.96005 167.274 9.96005H169.951C170.151 9.96005 170.315 10.0238 170.443 10.1513C170.57 10.2787 170.634 10.4426 170.634 10.643V11.7083C171.107 11.1256 171.718 10.643 172.464 10.2605C173.229 9.8781 174.14 9.68689 175.196 9.68689C176.27 9.68689 177.217 9.93274 178.037 10.4244C178.856 10.8979 179.494 11.599 179.949 12.5278C180.404 13.4383 180.632 14.5492 180.632 15.8604V23.4817C180.632 23.682 180.568 23.8459 180.441 23.9734C180.313 24.1009 180.149 24.1646 179.949 24.1646H177.053C176.853 24.1646 176.689 24.1009 176.562 23.9734C176.434 23.8459 176.37 23.682 176.37 23.4817V16.0243C176.37 15.0591 176.134 14.3125 175.66 13.7844C175.205 13.238 174.531 12.9649 173.639 12.9649C172.783 12.9649 172.1 13.238 171.59 13.7844C171.098 14.3125 170.852 15.0591 170.852 16.0243V23.4817C170.852 23.682 170.789 23.8459 170.661 23.9734C170.534 24.1009 170.37 24.1646 170.17 24.1646H167.274Z" fill="#253D32"/>
<path d="M185.134 24.1646C184.934 24.1646 184.77 24.1009 184.642 23.9734C184.515 23.8459 184.451 23.682 184.451 23.4817V5.45284C184.451 5.25252 184.515 5.08862 184.642 4.96115C184.77 4.83367 184.934 4.76993 185.134 4.76993H187.811C187.993 4.76993 188.148 4.83367 188.275 4.96115C188.421 5.08862 188.494 5.25252 188.494 5.45284V14.6858L192.673 10.4244C192.819 10.297 192.946 10.1877 193.056 10.0966C193.183 10.0056 193.374 9.96005 193.629 9.96005H196.743C196.907 9.96005 197.044 10.0238 197.153 10.1513C197.281 10.2605 197.344 10.3971 197.344 10.561C197.344 10.6339 197.326 10.7158 197.29 10.8069C197.253 10.8979 197.189 10.9708 197.098 11.0254L191.826 16.3248L197.781 23.1266C197.927 23.2723 198 23.4179 198 23.5636C198 23.7275 197.945 23.8732 197.836 24.0007C197.727 24.11 197.581 24.1646 197.399 24.1646H194.23C193.957 24.1646 193.757 24.1191 193.629 24.028C193.52 23.937 193.393 23.8277 193.247 23.7002L188.494 18.3462V23.4817C188.494 23.682 188.421 23.8459 188.275 23.9734C188.148 24.1009 187.993 24.1646 187.811 24.1646H185.134Z" fill="#253D32"/>
<path d="M22.3257 28.8922C25.9523 28.8922 28.8922 25.9523 28.8922 22.3257C28.8922 18.6992 25.9523 15.7593 22.3257 15.7593C18.6992 15.7593 15.7593 18.6992 15.7593 22.3257C15.7593 25.9523 18.6992 28.8922 22.3257 28.8922Z" fill="#EDFF81"/>
<path d="M24.2957 11.8195C26.8343 11.8195 28.8922 9.76156 28.8922 7.22298C28.8922 4.68439 26.8343 2.62646 24.2957 2.62646C21.7571 2.62646 19.6992 4.68439 19.6992 7.22298C19.6992 9.76156 21.7571 11.8195 24.2957 11.8195Z" fill="#253D32"/>
<path d="M7.26253 28.8529C9.80111 28.8529 11.859 26.795 11.859 24.2564C11.859 21.7178 9.80111 19.6599 7.26253 19.6599C4.72394 19.6599 2.66602 21.7178 2.66602 24.2564C2.66602 26.795 4.72394 28.8529 7.26253 28.8529Z" fill="#253D32"/>
<path d="M9.19291 15.7594C12.8195 15.7594 15.7594 12.8195 15.7594 9.19291C15.7594 5.56636 12.8195 2.62646 9.19291 2.62646C5.56636 2.62646 2.62646 5.56636 2.62646 9.19291C2.62646 12.8195 5.56636 15.7594 9.19291 15.7594Z" fill="#EDFF81"/>
</svg>
