<svg width="273" height="255" viewBox="0 0 273 255" fill="none" xmlns="http://www.w3.org/2000/svg">
<g filter="url(#filter0_d_178_31)">
<circle cx="138.543" cy="123.5" r="87.5" fill="url(#paint0_linear_178_31)"/>
</g>
<g filter="url(#filter1_b_178_31)">
<path fill-rule="evenodd" clip-rule="evenodd" d="M166.763 211.996C166.588 211.999 166.413 212 166.237 212C146.776 212 131 196.607 131 177.618C131 158.63 146.776 143.237 166.237 143.237C173.31 143.237 179.895 145.27 185.414 148.77C190.576 139.947 200.31 134 211.467 134C226.542 134 239.018 144.857 241.13 158.995C242.601 158.756 244.111 158.632 245.652 158.632C260.756 158.632 273 170.579 273 185.316C273 200.053 260.756 212 245.652 212H166.763V211.996Z" fill="url(#paint1_linear_178_31)" fill-opacity="0.4"/>
<path d="M167.263 211.5V211.489L166.756 211.496C166.583 211.499 166.41 211.5 166.237 211.5C147.041 211.5 131.5 196.319 131.5 177.618C131.5 158.918 147.041 143.737 166.237 143.737C173.213 143.737 179.706 145.742 185.146 149.192L185.584 149.469L185.846 149.022C190.919 140.35 200.49 134.5 211.467 134.5C226.3 134.5 238.561 145.181 240.635 159.069L240.71 159.569L241.21 159.488C242.654 159.254 244.138 159.132 245.652 159.132C260.491 159.132 272.5 170.866 272.5 185.316C272.5 199.765 260.491 211.5 245.652 211.5H167.263Z" stroke="url(#paint2_linear_178_31)" stroke-opacity="0.7"/>
</g>
<g filter="url(#filter2_b_178_31)">
<path fill-rule="evenodd" clip-rule="evenodd" d="M25.9407 122.997C25.8138 122.999 25.6867 123 25.5593 123C11.4432 123 0 111.751 0 97.875C0 83.9989 11.4432 72.75 25.5593 72.75C30.6893 72.75 35.4664 74.2357 39.4695 76.7932C43.2136 70.346 50.2739 66 58.3667 66C69.3015 66 78.351 73.9341 79.8827 84.2654C80.9497 84.0908 82.0455 84 83.163 84C94.1186 84 103 92.7305 103 103.5C103 114.27 94.1186 123 83.163 123H25.9407V122.997Z" fill="url(#paint3_linear_178_31)" fill-opacity="0.4"/>
<path d="M26.4407 122.5V122.49L25.9335 122.497C25.809 122.499 25.6843 122.5 25.5593 122.5C11.7113 122.5 0.5 111.467 0.5 97.875C0.5 84.283 11.7113 73.25 25.5593 73.25C30.5916 73.25 35.2756 74.7071 39.2003 77.2146L39.6399 77.4955L39.9018 77.0443C43.5587 70.7474 50.4564 66.5 58.3667 66.5C69.0564 66.5 77.8932 74.2553 79.3882 84.3387L79.4626 84.8407L79.9635 84.7588C81.0038 84.5886 82.0727 84.5 83.163 84.5C93.8506 84.5 102.5 93.0147 102.5 103.5C102.5 113.985 93.8506 122.5 83.163 122.5H26.4407Z" stroke="url(#paint4_linear_178_31)" stroke-opacity="0.7"/>
</g>
<defs>
<filter id="filter0_d_178_31" x="11.0435" y="0" width="255" height="255" filterUnits="userSpaceOnUse" color-interpolation-filters="sRGB">
<feFlood flood-opacity="0" result="BackgroundImageFix"/>
<feColorMatrix in="SourceAlpha" type="matrix" values="0 0 0 0 0 0 0 0 0 0 0 0 0 0 0 0 0 0 127 0" result="hardAlpha"/>
<feOffset dy="4"/>
<feGaussianBlur stdDeviation="20"/>
<feComposite in2="hardAlpha" operator="out"/>
<feColorMatrix type="matrix" values="0 0 0 0 1 0 0 0 0 0.811765 0 0 0 0 0.443137 0 0 0 0.5 0"/>
<feBlend mode="normal" in2="BackgroundImageFix" result="effect1_dropShadow_178_31"/>
<feBlend mode="normal" in="SourceGraphic" in2="effect1_dropShadow_178_31" result="shape"/>
</filter>
<filter id="filter1_b_178_31" x="101" y="104" width="202" height="138" filterUnits="userSpaceOnUse" color-interpolation-filters="sRGB">
<feFlood flood-opacity="0" result="BackgroundImageFix"/>
<feGaussianBlur in="BackgroundImageFix" stdDeviation="15"/>
<feComposite in2="SourceAlpha" operator="in" result="effect1_backgroundBlur_178_31"/>
<feBlend mode="normal" in="SourceGraphic" in2="effect1_backgroundBlur_178_31" result="shape"/>
</filter>
<filter id="filter2_b_178_31" x="-30" y="36" width="163" height="117" filterUnits="userSpaceOnUse" color-interpolation-filters="sRGB">
<feFlood flood-opacity="0" result="BackgroundImageFix"/>
<feGaussianBlur in="BackgroundImageFix" stdDeviation="15"/>
<feComposite in2="SourceAlpha" operator="in" result="effect1_backgroundBlur_178_31"/>
<feBlend mode="normal" in="SourceGraphic" in2="effect1_backgroundBlur_178_31" result="shape"/>
</filter>
<linearGradient id="paint0_linear_178_31" x1="95.0652" y1="211" x2="226.043" y2="64.8043" gradientUnits="userSpaceOnUse">
<stop stop-color="#FBA160"/>
<stop offset="1" stop-color="#FFCF71"/>
</linearGradient>
<linearGradient id="paint1_linear_178_31" x1="202" y1="134" x2="202" y2="212" gradientUnits="userSpaceOnUse">
<stop stop-color="#E8F0F7"/>
<stop offset="0.267854" stop-color="white"/>
</linearGradient>
<linearGradient id="paint2_linear_178_31" x1="138.1" y1="119.818" x2="272.91" y2="199.742" gradientUnits="userSpaceOnUse">
<stop stop-color="white"/>
<stop offset="1" stop-color="white" stop-opacity="0"/>
</linearGradient>
<linearGradient id="paint3_linear_178_31" x1="51.5" y1="66" x2="51.5" y2="123" gradientUnits="userSpaceOnUse">
<stop stop-color="#E8F0F7"/>
<stop offset="0.267854" stop-color="white"/>
</linearGradient>
<linearGradient id="paint4_linear_178_31" x1="5.15" y1="55.6364" x2="103.312" y2="113.402" gradientUnits="userSpaceOnUse">
<stop stop-color="white"/>
<stop offset="1" stop-color="white" stop-opacity="0"/>
</linearGradient>
</defs>
</svg>
