<svg width="116" height="116" viewBox="0 0 116 116" fill="none" xmlns="http://www.w3.org/2000/svg">
<g filter="url(#filter0_d_197_3)">
<circle cx="58" cy="54" r="18" fill="url(#paint0_linear_197_3)"/>
</g>
<g filter="url(#filter1_b_197_3)">
<path fill-rule="evenodd" clip-rule="evenodd" d="M39.8074 63.9991C39.7692 63.9997 39.7309 64 39.6926 64C35.4441 64 32 60.4477 32 56.0658C32 51.6838 35.4441 48.1316 39.6926 48.1316C41.2366 48.1316 42.6744 48.6007 43.8792 49.4084C45.006 47.3724 47.131 46 49.5667 46C52.8577 46 55.5814 48.5055 56.0424 51.768C56.3635 51.7129 56.6933 51.6842 57.0296 51.6842C60.327 51.6842 63 54.4412 63 57.8421C63 61.243 60.327 64 57.0296 64H39.8074V63.9991Z" fill="url(#paint1_linear_197_3)" fill-opacity="0.4"/>
<path d="M40.3074 63.5V63.4915L39.7998 63.4992C39.7642 63.4997 39.7284 63.5 39.6926 63.5C35.7347 63.5 32.5 60.1863 32.5 56.0658C32.5 51.9453 35.7347 48.6316 39.6926 48.6316C41.1335 48.6316 42.475 49.069 43.6007 49.8237L44.053 50.1269L44.3166 49.6505C45.3617 47.7623 47.3254 46.5 49.5667 46.5C52.5935 46.5 55.119 48.8069 55.5473 51.838L55.6194 52.3479L56.127 52.2608C56.4203 52.2105 56.7218 52.1842 57.0296 52.1842C60.0364 52.1842 62.5 54.7027 62.5 57.8421C62.5 60.9816 60.0364 63.5 57.0296 63.5H40.3074Z" stroke="url(#paint2_linear_197_3)" stroke-opacity="0.7"/>
</g>
<defs>
<filter id="filter0_d_197_3" x="0" y="0" width="116" height="116" filterUnits="userSpaceOnUse" color-interpolation-filters="sRGB">
<feFlood flood-opacity="0" result="BackgroundImageFix"/>
<feColorMatrix in="SourceAlpha" type="matrix" values="0 0 0 0 0 0 0 0 0 0 0 0 0 0 0 0 0 0 127 0" result="hardAlpha"/>
<feOffset dy="4"/>
<feGaussianBlur stdDeviation="20"/>
<feComposite in2="hardAlpha" operator="out"/>
<feColorMatrix type="matrix" values="0 0 0 0 1 0 0 0 0 0.811765 0 0 0 0 0.443137 0 0 0 0.5 0"/>
<feBlend mode="normal" in2="BackgroundImageFix" result="effect1_dropShadow_197_3"/>
<feBlend mode="normal" in="SourceGraphic" in2="effect1_dropShadow_197_3" result="shape"/>
</filter>
<filter id="filter1_b_197_3" x="2" y="16" width="91" height="78" filterUnits="userSpaceOnUse" color-interpolation-filters="sRGB">
<feFlood flood-opacity="0" result="BackgroundImageFix"/>
<feGaussianBlur in="BackgroundImageFix" stdDeviation="15"/>
<feComposite in2="SourceAlpha" operator="in" result="effect1_backgroundBlur_197_3"/>
<feBlend mode="normal" in="SourceGraphic" in2="effect1_backgroundBlur_197_3" result="shape"/>
</filter>
<linearGradient id="paint0_linear_197_3" x1="49.0559" y1="72" x2="76" y2="41.9255" gradientUnits="userSpaceOnUse">
<stop stop-color="#FBA160"/>
<stop offset="1" stop-color="#FFCF71"/>
</linearGradient>
<linearGradient id="paint1_linear_197_3" x1="47.5" y1="46" x2="47.5" y2="64" gradientUnits="userSpaceOnUse">
<stop stop-color="#E8F0F7"/>
<stop offset="0.267854" stop-color="white"/>
</linearGradient>
<linearGradient id="paint2_linear_197_3" x1="33.55" y1="42.7273" x2="63.8072" y2="59.6972" gradientUnits="userSpaceOnUse">
<stop stop-color="white"/>
<stop offset="1" stop-color="white" stop-opacity="0"/>
</linearGradient>
</defs>
</svg>
