<svg width="42" height="34" viewBox="0 0 42 34" fill="none" xmlns="http://www.w3.org/2000/svg">
<g filter="url(#filter0_b_178_155)">
<path fill-rule="evenodd" clip-rule="evenodd" d="M10.5778 23.9988C10.526 23.9996 10.4742 24 10.4222 24C4.66617 24 0 19.2636 0 13.4211C0 7.57846 4.66617 2.84211 10.4222 2.84211C12.5141 2.84211 14.462 3.46765 16.0943 4.54452C17.6211 1.82988 20.5 0 23.8 0C28.2589 0 31.949 3.34067 32.5735 7.69068C33.0086 7.61719 33.4555 7.57895 33.9111 7.57895C38.3785 7.57895 42 11.2549 42 15.7895C42 20.324 38.3785 24 33.9111 24H10.5778V23.9988Z" fill="#B1D4F8"/>
<path d="M11.0778 23.5V23.4913L10.5703 23.4989C10.521 23.4996 10.4717 23.5 10.4222 23.5C4.94933 23.5 0.5 18.9946 0.5 13.4211C0.5 7.84754 4.94933 3.34211 10.4222 3.34211C12.4128 3.34211 14.2655 3.93702 15.819 4.96188L16.267 5.25746L16.5301 4.78962C17.9732 2.22371 20.6905 0.5 23.8 0.5C28.001 0.5 31.4881 3.64875 32.0786 7.76174L32.1515 8.26906L32.6568 8.1837C33.0645 8.11483 33.4835 8.07895 33.9111 8.07895C38.0953 8.07895 41.5 11.524 41.5 15.7895C41.5 20.0549 38.0953 23.5 33.9111 23.5H11.0778Z" stroke="url(#paint0_linear_178_155)" stroke-opacity="0.7"/>
</g>
<path d="M10 28L7 33" stroke="#B1D4F8" stroke-width="2" stroke-linecap="round"/>
<path d="M21 28L18 33" stroke="#B1D4F8" stroke-width="2" stroke-linecap="round"/>
<path d="M32 28L29 33" stroke="#B1D4F8" stroke-width="2" stroke-linecap="round"/>
<defs>
<filter id="filter0_b_178_155" x="-30" y="-30" width="102" height="84" filterUnits="userSpaceOnUse" color-interpolation-filters="sRGB">
<feFlood flood-opacity="0" result="BackgroundImageFix"/>
<feGaussianBlur in="BackgroundImageFix" stdDeviation="15"/>
<feComposite in2="SourceAlpha" operator="in" result="effect1_backgroundBlur_178_155"/>
<feBlend mode="normal" in="SourceGraphic" in2="effect1_backgroundBlur_178_155" result="shape"/>
</filter>
<linearGradient id="paint0_linear_178_155" x1="2.1" y1="-4.36363" x2="42.7771" y2="18.8183" gradientUnits="userSpaceOnUse">
<stop stop-color="white"/>
<stop offset="1" stop-color="white" stop-opacity="0"/>
</linearGradient>
</defs>
</svg>
