<svg width="210" height="237" viewBox="0 0 210 237" fill="none" xmlns="http://www.w3.org/2000/svg">
<g filter="url(#filter0_d_178_83)">
<path fill-rule="evenodd" clip-rule="evenodd" d="M143.281 37.7594C144.767 38.9014 145.849 40.5355 146.37 42.4239C146.891 44.3123 146.823 46.3567 146.176 48.2595L130.981 92.9695L164.095 104.224C165.609 104.738 166.942 105.69 167.949 106.978C168.956 108.266 169.598 109.84 169.805 111.528C170.012 113.217 169.776 114.955 169.124 116.554C168.471 118.153 167.426 119.551 166.103 120.597L77.7624 190.322C76.2235 191.539 74.3817 192.221 72.5052 192.268C70.6286 192.315 68.8152 191.724 67.3287 190.581C65.8422 189.438 64.7602 187.803 64.2401 185.914C63.7201 184.025 63.789 181.98 64.437 180.077L79.6324 135.367L46.5186 124.113C45.004 123.599 43.6708 122.646 42.664 121.358C41.6571 120.07 41.0153 118.496 40.8082 116.808C40.6012 115.12 40.8369 113.382 41.4897 111.783C42.1425 110.184 43.1874 108.786 44.5107 107.74L132.851 38.0151C134.39 36.8005 136.231 36.1218 138.106 36.0774C139.981 36.033 141.793 36.6254 143.278 37.7683L143.281 37.7594Z" fill="url(#paint0_linear_178_83)"/>
</g>
<defs>
<filter id="filter0_d_178_83" x="0.735268" y="0.0750732" width="209.143" height="236.195" filterUnits="userSpaceOnUse" color-interpolation-filters="sRGB">
<feFlood flood-opacity="0" result="BackgroundImageFix"/>
<feColorMatrix in="SourceAlpha" type="matrix" values="0 0 0 0 0 0 0 0 0 0 0 0 0 0 0 0 0 0 127 0" result="hardAlpha"/>
<feOffset dy="4"/>
<feGaussianBlur stdDeviation="20"/>
<feComposite in2="hardAlpha" operator="out"/>
<feColorMatrix type="matrix" values="0 0 0 0 1 0 0 0 0 0.811765 0 0 0 0 0.443137 0 0 0 0.5 0"/>
<feBlend mode="normal" in2="BackgroundImageFix" result="effect1_dropShadow_178_83"/>
<feBlend mode="normal" in="SourceGraphic" in2="effect1_dropShadow_178_83" result="shape"/>
</filter>
<linearGradient id="paint0_linear_178_83" x1="49.1564" y1="184.865" x2="199.85" y2="129.957" gradientUnits="userSpaceOnUse">
<stop stop-color="#FBA160"/>
<stop offset="1" stop-color="#FFCF71"/>
</linearGradient>
</defs>
</svg>
